<svg height="1024" node-id="1" sillyvg="true" template-height="1024" template-width="1024" version="1.1" viewBox="0 0 1024 1024" width="1024" xmlns="http://www.w3.org/2000/svg" xmlns:xlink="http://www.w3.org/1999/xlink"><defs node-id="46"></defs><path d="M 0.00 0.00 L 1024.00 0.00 L 1024.00 1024.00 L 0.00 1024.00 Z" fill="#ffffff" fill-rule="nonzero" node-id="48" stroke="none" target-height="1024" target-width="1024" target-x="0" target-y="0"/><path d="M 662.80 111.20 L 667.00 108.60 L 671.30 106.40 L 675.70 104.60 L 680.30 103.20 L 689.80 101.50 L 699.50 101.30 L 705.90 102.00 L 712.30 103.20 L 718.50 105.10 L 724.50 107.60 L 730.20 110.50 L 735.60 114.10 L 739.40 117.10 L 742.90 120.30 L 746.00 123.90 L 748.90 127.70 L 751.50 131.70 L 753.60 136.00 L 755.30 140.60 L 756.70 145.40 L 753.70 151.00 L 745.90 168.10 L 739.90 179.20 L 737.10 176.50 L 736.40 167.80 L 735.50 163.50 L 734.30 159.20 L 732.00 153.70 L 729.20 148.40 L 725.90 143.50 L 723.00 140.00 L 719.90 136.90 L 713.00 131.50 L 709.10 129.30 L 705.20 127.60 L 701.00 126.20 L 696.60 125.30 L 692.20 125.20 L 688.10 125.70 L 684.10 126.70 L 680.30 128.20 L 676.60 130.00 L 673.10 132.30 L 668.10 136.20 L 663.50 140.60 L 659.30 145.40 L 655.50 150.20 L 650.30 157.70 L 640.80 173.30 L 634.20 185.30 L 628.10 197.60 L 611.50 234.10 L 601.60 257.60 L 597.30 269.60 L 593.50 281.80 L 589.70 295.60 L 589.90 297.80 L 590.80 299.20 L 595.50 302.50 L 614.20 311.10 L 629.40 318.90 L 631.30 329.00 L 632.90 333.80 L 635.60 340.80 L 638.90 347.60 L 649.50 367.80 L 652.80 374.60 L 656.50 384.00 L 657.90 388.90 L 631.20 392.10 L 622.50 393.90 L 616.80 395.50 L 611.20 397.70 L 605.70 400.30 L 589.30 407.20 L 585.40 409.40 L 581.90 411.90 L 579.90 413.90 L 578.20 416.00 L 576.90 418.40 L 576.00 421.00 L 575.50 423.90 L 575.60 427.40 L 583.00 430.90 L 588.20 428.90 L 593.50 427.20 L 598.90 425.90 L 604.30 425.10 L 609.90 424.70 L 615.30 424.70 L 620.70 425.20 L 626.10 426.20 L 631.40 427.60 L 636.40 429.60 L 641.40 432.10 L 646.20 435.20 L 645.60 423.20 L 642.90 421.30 L 640.10 419.80 L 634.10 417.60 L 627.90 415.90 L 632.30 413.70 L 636.90 412.00 L 655.80 407.30 L 659.30 403.20 L 662.30 388.60 L 671.20 394.10 L 676.40 398.60 L 682.80 407.20 L 686.70 413.30 L 693.40 426.00 L 697.20 434.80 L 700.40 443.90 L 703.10 453.10 L 695.50 451.10 L 680.10 446.30 L 667.20 443.00 L 656.90 441.80 L 651.70 441.90 L 646.40 442.60 L 641.10 443.90 L 633.30 447.70 L 629.50 450.00 L 626.00 452.70 L 623.90 454.70 L 620.70 459.30 L 619.60 461.80 L 619.10 464.70 L 619.10 470.80 L 620.20 476.50 L 622.80 481.70 L 624.50 484.00 L 628.70 488.10 L 636.30 493.50 L 641.70 496.80 L 647.30 499.70 L 656.00 503.70 L 664.80 507.10 L 673.90 510.10 L 701.20 518.30 L 702.90 522.70 L 698.50 533.00 L 693.60 543.10 L 688.10 553.20 L 679.00 567.60 L 668.70 581.00 L 663.10 587.40 L 657.20 593.40 L 651.00 599.10 L 644.50 604.40 L 637.60 609.40 L 630.50 613.80 L 623.00 617.90 L 615.10 621.40 L 604.50 625.00 L 593.80 628.00 L 583.00 630.40 L 560.90 633.90 L 549.80 635.10 L 516.50 637.50 L 503.90 636.70 L 491.30 635.50 L 478.80 633.90 L 466.30 631.70 L 453.90 629.10 L 441.70 626.00 L 429.60 622.30 L 417.70 618.00 L 406.00 613.20 L 397.70 609.00 L 381.40 599.90 L 373.50 594.80 L 366.00 589.40 L 358.70 583.50 L 353.50 578.90 L 343.90 568.80 L 339.40 563.30 L 334.60 556.80 L 330.10 550.00 L 326.00 543.00 L 314.50 521.50 L 307.20 521.00 L 306.10 513.70 L 305.40 506.40 L 305.30 499.10 L 306.30 484.50 L 307.40 477.30 L 309.50 466.40 L 312.00 455.70 L 317.80 434.40 L 323.10 440.90 L 331.00 426.80 L 344.90 397.70 L 352.90 382.70 L 354.50 378.80 L 355.60 374.80 L 356.10 369.30 L 355.80 366.30 L 363.60 356.80 L 367.20 356.30 L 370.60 355.50 L 373.90 354.30 L 378.60 351.90 L 387.20 345.70 L 398.50 336.50 L 405.50 330.40 L 408.60 326.90 L 411.20 323.20 L 412.50 320.60 L 414.40 314.50 L 421.80 310.20 L 429.60 306.50 L 434.90 304.30 L 445.90 300.90 L 452.60 300.40 L 451.10 290.70 L 449.20 281.10 L 446.80 271.50 L 442.80 257.30 L 426.40 205.90 L 423.00 197.00 L 415.00 179.60 L 406.40 162.40 L 403.20 157.10 L 399.60 152.00 L 395.70 147.10 L 391.40 142.60 L 386.80 138.40 L 381.90 134.50 L 378.00 131.90 L 373.80 129.80 L 369.30 128.10 L 364.70 127.00 L 360.10 126.50 L 355.40 126.50 L 351.90 126.90 L 345.20 128.70 L 338.30 132.00 L 335.10 134.20 L 329.20 139.30 L 325.80 143.20 L 322.80 147.40 L 320.20 152.00 L 317.90 156.80 L 314.30 166.50 L 313.70 168.80 L 313.60 171.10 L 314.10 173.40 L 316.60 180.00 L 318.70 187.60 L 323.90 202.30 L 328.50 213.00 L 359.30 280.30 L 375.10 315.60 L 377.50 321.70 L 379.10 328.00 L 375.00 332.20 L 370.40 335.70 L 367.00 331.30 L 364.30 326.50 L 320.80 240.20 L 299.70 196.80 L 295.30 185.80 L 292.30 174.20 L 291.40 168.30 L 290.90 162.40 L 290.90 156.40 L 291.30 150.60 L 292.30 144.70 L 293.90 139.10 L 296.00 133.50 L 298.70 128.20 L 301.40 124.20 L 307.50 117.30 L 311.00 114.20 L 315.90 110.60 L 321.20 107.50 L 326.90 104.90 L 332.70 102.80 L 338.70 101.30 L 344.90 100.30 L 351.10 99.90 L 357.30 100.00 L 363.40 100.70 L 369.50 102.00 L 375.40 103.80 L 381.00 106.20 L 389.00 110.90 L 396.10 117.00 L 402.00 124.50 L 407.90 134.80 L 410.90 141.30 L 421.40 167.90 L 454.00 251.20 L 461.80 272.10 L 469.10 293.20 L 478.00 292.80 L 513.40 289.70 L 528.20 289.50 L 546.10 291.10 L 570.30 294.60 L 576.40 294.90 L 580.50 286.90 L 610.70 212.70 L 624.40 179.90 L 641.60 140.70 L 648.40 127.60 L 652.50 121.50 L 655.60 117.80 L 659.00 114.30 L 662.80 111.20 Z M 384.10 404.60 L 402.50 407.60 L 411.60 409.70 L 420.60 412.30 L 411.10 413.50 L 406.10 414.60 L 401.40 416.20 L 398.40 417.70 L 395.90 419.50 L 393.70 421.50 L 392.40 423.30 L 390.60 427.70 L 390.20 430.30 L 392.20 433.30 L 394.20 434.30 L 396.60 434.00 L 398.50 433.10 L 407.60 426.30 L 412.00 424.50 L 416.40 423.20 L 420.90 422.30 L 425.50 421.90 L 434.70 422.20 L 441.70 423.20 L 448.50 424.80 L 461.70 429.10 L 465.90 420.90 L 462.90 416.10 L 459.50 411.60 L 457.50 409.70 L 455.10 408.10 L 447.80 404.30 L 440.40 401.10 L 432.70 398.40 L 424.80 396.30 L 416.80 394.70 L 408.70 393.60 L 400.50 392.90 L 392.30 392.60 L 384.20 392.80 L 384.10 404.60 Z M 500.20 436.80 L 499.80 439.20 L 499.90 441.10 L 500.70 442.90 L 503.30 445.90 L 508.40 448.90 L 517.60 453.10 L 518.00 461.30 L 517.80 465.40 L 517.10 469.50 L 516.00 473.40 L 514.20 477.20 L 508.00 480.20 L 493.40 482.80 L 481.70 483.00 L 475.80 482.70 L 470.00 481.90 L 462.40 479.90 L 458.80 478.50 L 456.50 477.20 L 454.80 475.60 L 453.40 473.90 L 451.80 470.80 L 450.70 467.40 L 448.50 456.50 L 447.50 453.20 L 445.80 456.40 L 443.30 462.90 L 442.20 469.90 L 442.10 473.50 L 442.20 483.30 L 442.80 493.20 L 443.90 503.10 L 445.50 512.90 L 447.60 522.60 L 450.30 532.10 L 452.80 539.10 L 458.70 552.70 L 462.20 559.20 L 465.10 563.80 L 468.30 567.90 L 471.90 571.70 L 480.00 578.30 L 484.50 581.10 L 491.50 584.90 L 498.70 588.20 L 504.30 588.40 L 508.10 589.70 L 511.90 590.70 L 515.90 591.20 L 521.90 591.40 L 539.90 590.50 L 538.50 589.10 L 548.90 587.80 L 554.70 585.50 L 560.20 582.90 L 565.40 579.80 L 570.30 576.20 L 574.90 572.30 L 579.30 568.00 L 583.30 563.50 L 587.00 558.60 L 591.50 551.70 L 595.50 544.60 L 598.90 537.20 L 601.40 530.20 L 603.50 523.00 L 605.20 515.70 L 606.50 508.20 L 607.40 500.80 L 607.90 493.30 L 607.90 485.80 L 607.50 478.20 L 606.70 470.80 L 605.50 463.40 L 603.80 456.10 L 601.70 448.80 L 597.20 449.40 L 597.10 463.50 L 595.80 470.40 L 594.50 472.70 L 592.70 474.70 L 590.60 476.30 L 583.70 480.50 L 554.80 481.70 L 545.20 481.30 L 538.90 480.60 L 532.60 479.50 L 526.40 477.80 L 524.70 469.60 L 524.40 465.50 L 524.30 453.00 L 528.10 451.50 L 531.70 449.70 L 535.80 446.40 L 537.40 444.30 L 538.60 442.10 L 539.40 439.60 L 539.60 436.70 L 526.50 434.80 L 519.80 434.40 L 513.10 434.50 L 508.70 434.90 L 500.20 436.80 Z M 363.80 443.40 L 351.00 447.50 L 344.70 450.00 L 334.70 455.10 L 327.50 460.30 L 324.30 463.30 L 321.40 466.70 L 316.80 473.60 L 315.30 476.90 L 314.30 480.30 L 313.30 487.40 L 313.30 491.00 L 313.80 496.50 L 314.80 501.90 L 318.00 512.20 L 318.80 514.10 L 319.80 515.50 L 321.00 516.50 L 324.00 517.60 L 328.40 517.60 L 336.10 516.20 L 364.00 508.80 L 373.20 506.00 L 391.30 499.60 L 402.40 494.50 L 407.90 491.50 L 412.90 488.10 L 416.00 485.50 L 418.70 482.50 L 422.50 476.50 L 423.50 473.90 L 424.50 468.30 L 424.40 464.50 L 423.80 460.80 L 422.50 457.20 L 420.80 453.80 L 418.70 450.70 L 416.00 447.90 L 411.40 444.70 L 406.00 442.70 L 391.90 441.60 L 377.80 441.90 L 363.80 443.40 Z" fill="#fdfdfd" fill-rule="nonzero" node-id="50" stroke="none" target-height="537.6" target-width="465.80002" target-x="290.9" target-y="99.9"/><path d="M 266.70 585.00 L 274.60 584.90 L 278.50 585.40 L 284.70 587.30 L 287.00 588.50 L 299.70 597.30 L 310.30 604.20 L 321.20 610.80 L 332.30 616.90 L 343.70 622.60 L 355.20 627.90 L 364.00 631.50 L 382.00 637.60 L 391.30 640.20 L 398.30 641.00 L 407.20 640.60 L 412.60 639.90 L 418.10 637.20 L 446.70 644.20 L 461.10 647.50 L 485.30 651.80 L 504.90 653.80 L 517.80 654.70 L 530.80 655.00 L 543.80 654.80 L 556.80 654.00 L 569.70 652.60 L 582.60 650.60 L 601.60 646.50 L 620.30 641.00 L 622.70 640.60 L 627.40 640.60 L 638.20 642.20 L 641.80 642.20 L 645.80 640.90 L 657.30 635.50 L 675.40 628.20 L 692.90 619.50 L 704.20 613.00 L 715.10 606.00 L 728.80 596.30 L 735.30 592.80 L 738.80 591.50 L 742.40 590.80 L 746.00 590.50 L 751.30 591.10 L 756.60 593.30 L 751.60 598.70 L 747.00 604.40 L 733.90 622.20 L 729.30 628.00 L 712.80 645.60 L 704.10 654.00 L 695.00 661.90 L 688.70 666.90 L 682.10 671.50 L 670.70 678.90 L 665.90 681.60 L 646.40 691.90 L 641.80 694.90 L 637.50 698.40 L 637.70 708.40 L 642.90 715.30 L 644.20 717.70 L 644.70 719.50 L 644.80 721.30 L 642.70 735.10 L 640.30 746.80 L 636.20 762.20 L 633.60 769.80 L 630.60 777.20 L 627.20 784.30 L 623.40 791.20 L 619.10 797.80 L 614.30 804.10 L 608.90 810.10 L 605.20 813.40 L 601.20 816.30 L 597.00 818.80 L 588.10 822.60 L 576.20 825.90 L 568.90 827.20 L 541.30 830.90 L 528.20 831.90 L 515.10 832.20 L 502.00 832.10 L 475.70 830.70 L 456.00 828.80 L 436.50 826.50 L 429.50 824.50 L 408.70 817.50 L 401.60 815.50 L 392.40 813.90 L 388.60 814.30 L 383.20 816.50 L 378.30 819.60 L 378.40 828.90 L 378.20 838.10 L 377.50 847.30 L 376.30 856.50 L 370.70 855.60 L 357.40 836.10 L 353.20 829.40 L 340.70 807.20 L 334.40 794.50 L 330.50 784.00 L 329.10 778.50 L 328.20 773.00 L 327.80 767.20 L 340.10 765.90 L 343.30 767.90 L 349.10 772.60 L 352.90 776.60 L 366.90 794.10 L 370.60 798.20 L 376.20 803.00 L 379.30 805.10 L 378.10 799.80 L 376.50 794.60 L 374.50 789.60 L 371.00 782.20 L 367.10 775.10 L 367.60 769.00 L 367.20 744.10 L 367.70 738.00 L 368.40 734.00 L 369.50 730.10 L 371.10 726.20 L 384.40 723.30 L 387.60 722.30 L 392.30 719.80 L 395.00 716.70 L 395.90 714.90 L 396.40 712.60 L 396.70 709.90 L 391.60 706.00 L 386.20 702.70 L 363.90 691.00 L 353.10 684.70 L 342.50 677.80 L 332.30 670.50 L 322.50 662.70 L 313.10 654.40 L 299.80 641.10 L 283.70 622.10 L 280.20 617.40 L 277.00 612.50 L 274.10 607.30 L 271.70 602.00 L 269.60 596.50 L 268.00 590.80 L 266.70 585.00 Z" fill="#fdfdfd" fill-rule="nonzero" node-id="52" stroke="none" target-height="271.59998" target-width="489.89996" target-x="266.7" target-y="584.9"/><path d="M 284.40 101.90 L 289.10 97.50 L 294.10 93.40 L 299.30 89.70 L 310.40 83.20 L 322.20 78.10 L 328.40 76.10 L 334.60 74.50 L 347.30 72.40 L 353.80 72.00 L 359.60 72.30 L 365.30 72.90 L 376.50 75.40 L 383.70 77.90 L 390.80 80.90 L 397.60 84.50 L 404.10 88.60 L 410.40 93.10 L 416.30 98.00 L 419.00 101.10 L 423.40 108.00 L 429.10 118.90 L 439.90 142.90 L 450.30 167.00 L 490.50 264.00 L 492.60 265.40 L 495.00 266.10 L 497.50 266.30 L 510.60 265.40 L 519.10 264.30 L 523.30 264.20 L 536.00 265.10 L 548.70 266.80 L 541.80 267.50 L 530.50 265.80 L 524.90 265.50 L 519.30 265.60 L 513.60 266.30 L 508.00 267.40 L 496.80 268.70 L 494.00 268.50 L 491.60 267.80 L 490.20 266.90 L 489.10 265.60 L 488.20 263.80 L 458.30 191.10 L 437.80 142.90 L 427.10 119.00 L 421.10 107.50 L 418.80 103.90 L 416.20 100.50 L 413.10 97.40 L 402.80 90.00 L 397.30 86.60 L 385.80 80.80 L 379.90 78.40 L 373.80 76.40 L 367.60 75.00 L 361.30 74.00 L 355.00 73.60 L 348.70 73.80 L 342.20 74.70 L 335.10 76.20 L 328.10 78.10 L 321.10 80.50 L 314.30 83.30 L 307.70 86.60 L 301.40 90.40 L 295.40 94.60 L 289.90 99.20 L 284.70 104.40 L 281.20 108.50 L 278.00 112.90 L 275.20 117.60 L 270.30 127.70 L 268.30 132.90 L 266.70 138.10 L 265.60 143.50 L 264.60 150.80 L 264.00 158.20 L 264.00 165.60 L 264.60 176.80 L 265.90 187.70 L 268.70 195.30 L 275.10 210.00 L 291.20 242.50 L 303.10 268.80 L 332.30 329.60 L 339.80 346.70 L 339.90 348.20 L 338.70 351.10 L 326.80 365.30 L 319.70 374.70 L 313.10 384.30 L 306.90 394.30 L 301.10 404.50 L 295.80 415.00 L 291.00 425.70 L 286.60 436.60 L 282.70 447.70 L 279.20 458.90 L 276.30 470.20 L 273.80 481.70 L 273.20 513.30 L 274.20 530.80 L 276.20 544.50 L 277.80 551.30 L 279.80 558.00 L 282.30 564.70 L 260.10 564.10 L 251.50 571.50 L 247.40 575.60 L 241.70 583.20 L 238.20 589.80 L 237.10 593.40 L 236.30 597.10 L 235.90 601.10 L 236.00 606.60 L 236.50 612.00 L 237.40 617.20 L 238.80 622.20 L 241.20 628.80 L 244.20 635.20 L 247.70 641.40 L 255.70 653.30 L 260.10 659.00 L 273.80 675.30 L 290.00 689.50 L 298.40 696.30 L 307.00 702.80 L 319.10 710.50 L 325.50 713.80 L 326.40 744.00 L 315.30 747.40 L 312.40 747.80 L 309.50 747.70 L 302.20 752.70 L 295.80 758.90 L 290.60 766.00 L 288.60 769.90 L 287.00 774.00 L 285.80 778.30 L 285.30 783.60 L 285.00 799.60 L 288.20 807.70 L 291.80 815.60 L 295.80 823.30 L 300.20 830.80 L 306.50 840.50 L 313.40 849.80 L 320.80 858.70 L 328.70 867.30 L 336.90 875.50 L 345.40 883.30 L 357.40 886.80 L 354.90 881.10 L 360.00 884.90 L 366.70 891.70 L 372.10 891.60 L 377.40 890.90 L 384.20 888.90 L 387.50 887.30 L 394.70 888.10 L 401.20 884.90 L 407.40 881.30 L 413.40 877.10 L 419.00 872.60 L 429.70 862.90 L 428.10 865.00 L 421.20 872.30 L 417.30 875.50 L 411.10 880.00 L 404.60 883.90 L 397.80 887.40 L 390.90 890.40 L 385.90 892.00 L 381.00 893.00 L 375.90 893.40 L 370.90 893.20 L 365.90 892.50 L 361.00 891.30 L 356.10 889.70 L 351.50 887.60 L 347.00 885.10 L 342.70 882.30 L 338.70 879.20 L 328.00 869.10 L 321.30 861.90 L 314.90 854.50 L 308.90 846.80 L 303.30 838.80 L 298.10 830.60 L 293.30 822.10 L 288.90 813.40 L 285.10 804.40 L 283.70 800.20 L 282.90 796.10 L 282.40 791.90 L 282.40 787.70 L 282.90 783.50 L 284.80 775.40 L 286.30 771.50 L 288.80 766.50 L 291.80 761.80 L 295.40 757.40 L 299.40 753.40 L 303.80 750.00 L 308.50 747.00 L 312.30 745.20 L 316.20 743.70 L 320.30 742.60 L 324.60 741.90 L 323.20 713.90 L 310.70 706.80 L 304.70 702.80 L 296.00 696.40 L 287.60 689.60 L 271.60 675.10 L 259.30 660.60 L 253.40 653.00 L 248.00 645.20 L 244.70 639.70 L 239.30 628.40 L 237.20 622.50 L 235.50 616.40 L 234.40 610.00 L 234.00 605.90 L 234.10 601.80 L 235.30 593.90 L 238.00 586.40 L 242.00 579.40 L 244.50 576.20 L 250.20 570.50 L 255.80 566.10 L 258.30 564.60 L 260.90 563.50 L 265.10 562.60 L 269.50 562.20 L 278.30 562.00 L 277.30 555.00 L 272.60 534.30 L 271.40 524.50 L 270.80 514.80 L 270.70 505.10 L 271.20 495.40 L 272.20 485.70 L 273.60 476.10 L 275.50 466.60 L 277.90 457.10 L 280.70 447.80 L 287.40 429.50 L 291.30 420.50 L 297.10 408.80 L 303.30 397.40 L 314.30 379.80 L 318.90 373.50 L 337.90 348.90 L 336.70 343.70 L 332.70 333.70 L 290.60 245.70 L 269.90 204.10 L 265.80 193.50 L 264.20 188.00 L 262.70 180.50 L 261.70 172.90 L 261.40 165.20 L 261.60 157.60 L 262.40 150.00 L 263.90 142.40 L 265.90 135.00 L 268.40 127.80 L 271.60 120.90 L 277.30 111.00 L 284.40 101.90 Z" fill="#772713" fill-rule="nonzero" node-id="54" stroke="none" target-height="821.4" target-width="314.7" target-x="234" target-y="72"/><path d="M 764.00 229.70 L 775.20 209.30 L 780.20 198.80 L 784.70 188.10 L 785.30 194.40 L 773.90 216.50 L 762.00 238.30 L 725.10 303.30 L 711.40 328.40 L 707.10 335.60 L 704.00 341.80 L 703.00 346.70 L 703.20 349.10 L 703.90 351.60 L 705.40 354.20 L 712.20 363.20 L 718.60 372.40 L 724.70 381.90 L 730.50 391.70 L 735.90 401.60 L 740.90 411.80 L 745.50 422.10 L 749.70 432.60 L 753.40 443.30 L 756.70 454.00 L 759.60 465.00 L 761.90 476.00 L 764.00 490.80 L 764.70 505.60 L 764.40 515.50 L 763.50 525.40 L 762.00 535.20 L 759.90 544.90 L 757.30 554.50 L 754.20 563.90 L 758.90 565.80 L 763.30 568.20 L 767.50 571.00 L 771.30 574.30 L 774.70 577.90 L 777.80 581.90 L 780.50 586.10 L 782.70 590.60 L 784.40 595.30 L 785.60 600.20 L 786.30 605.10 L 786.40 616.20 L 785.80 622.00 L 784.70 627.80 L 783.00 633.40 L 780.90 638.90 L 775.50 649.50 L 768.90 659.30 L 763.30 666.60 L 751.00 680.60 L 744.40 687.10 L 737.50 693.30 L 730.20 699.10 L 722.70 704.50 L 714.80 709.40 L 706.60 713.80 L 704.90 728.80 L 703.70 736.30 L 702.00 743.70 L 702.10 731.30 L 703.50 717.70 L 704.30 713.20 L 713.50 707.90 L 722.40 702.10 L 731.00 695.80 L 739.10 689.00 L 746.80 681.70 L 754.10 674.00 L 760.90 665.90 L 767.30 657.30 L 773.00 648.50 L 776.20 642.80 L 778.80 637.00 L 780.80 630.90 L 782.40 624.70 L 783.40 618.40 L 783.80 611.90 L 783.60 605.50 L 782.80 599.20 L 781.30 592.90 L 779.40 588.50 L 777.00 584.30 L 774.20 580.20 L 771.10 576.50 L 767.60 573.20 L 763.80 570.30 L 760.70 568.50 L 757.40 567.10 L 753.90 566.00 L 750.30 565.30 L 753.20 558.00 L 755.60 550.70 L 757.70 543.20 L 759.30 535.60 L 760.60 528.00 L 761.90 512.50 L 762.00 504.70 L 761.60 494.30 L 760.60 484.00 L 759.00 473.70 L 756.90 463.50 L 754.20 453.50 L 747.50 433.40 L 743.50 423.20 L 739.20 413.20 L 734.50 403.30 L 729.30 393.60 L 722.40 381.80 L 715.00 370.40 L 707.10 359.30 L 698.60 348.50 L 705.90 333.30 L 753.40 248.10 L 764.00 229.70 Z" fill="#772713" fill-rule="nonzero" node-id="56" stroke="none" target-height="555.6" target-width="87.80005" target-x="698.6" target-y="188.1"/><path d="M 647.00 89.60 L 652.00 86.30 L 657.10 83.40 L 662.40 81.00 L 668.00 78.90 L 679.30 75.80 L 691.00 74.40 L 702.80 74.50 L 714.50 76.20 L 726.90 79.30 L 739.00 83.90 L 744.80 86.70 L 750.40 89.80 L 755.80 93.40 L 760.80 97.30 L 765.40 101.70 L 771.60 109.00 L 776.60 117.30 L 782.10 129.00 L 786.20 141.40 L 787.70 147.80 L 788.70 154.30 L 789.40 160.80 L 789.50 167.20 L 789.20 173.70 L 788.40 180.10 L 787.10 186.50 L 785.20 192.70 L 784.70 188.10 L 786.00 180.80 L 786.70 173.40 L 786.90 166.00 L 786.70 158.60 L 785.80 151.20 L 784.50 143.90 L 782.60 136.80 L 780.10 129.90 L 774.00 117.20 L 770.50 111.60 L 766.40 106.30 L 761.90 101.50 L 757.00 97.00 L 751.60 92.90 L 746.00 89.30 L 740.10 86.20 L 734.00 83.70 L 727.70 81.60 L 721.30 80.20 L 714.80 79.40 L 713.40 80.80 L 714.90 85.60 L 720.40 86.50 L 725.80 87.90 L 731.10 89.80 L 736.20 92.10 L 741.20 94.70 L 745.90 97.80 L 750.50 101.10 L 758.80 108.60 L 763.30 114.30 L 767.30 120.30 L 770.80 126.70 L 773.80 133.30 L 776.20 140.20 L 778.00 147.20 L 779.30 154.40 L 779.90 161.60 L 779.90 168.80 L 778.70 179.60 L 775.90 190.20 L 771.10 202.10 L 763.80 216.40 L 701.00 326.90 L 695.40 337.40 L 693.70 341.00 L 691.40 348.50 L 694.70 354.90 L 698.60 361.00 L 711.20 378.70 L 715.10 384.70 L 721.20 395.20 L 727.00 405.90 L 732.40 416.80 L 737.40 428.00 L 741.90 439.40 L 745.80 451.00 L 750.40 468.60 L 752.20 477.50 L 753.50 486.50 L 754.40 495.60 L 754.80 504.70 L 754.70 513.80 L 754.20 523.00 L 753.60 528.60 L 751.50 539.70 L 749.30 547.90 L 741.40 572.00 L 749.50 573.30 L 753.50 574.40 L 757.20 575.80 L 761.80 578.60 L 767.20 583.70 L 770.00 587.20 L 772.30 590.90 L 774.20 595.00 L 775.60 599.20 L 776.50 603.60 L 777.10 608.00 L 777.00 617.10 L 776.30 621.60 L 774.10 630.20 L 771.80 636.10 L 769.20 641.70 L 766.20 647.10 L 759.10 657.30 L 748.90 669.10 L 742.30 675.80 L 728.60 688.50 L 723.80 692.50 L 718.70 696.10 L 702.90 706.00 L 697.90 709.70 L 696.50 716.30 L 692.40 743.10 L 689.70 754.00 L 686.30 762.40 L 695.00 762.00 L 699.30 762.20 L 703.50 762.80 L 706.20 763.70 L 708.80 764.90 L 714.10 768.80 L 716.60 771.20 L 720.90 776.70 L 723.00 780.70 L 724.70 785.00 L 725.90 789.50 L 726.60 794.20 L 726.80 798.80 L 726.60 803.50 L 723.70 803.70 L 721.20 804.40 L 718.90 805.40 L 715.70 807.50 L 707.00 815.40 L 708.50 810.40 L 710.20 801.30 L 710.30 794.00 L 709.70 790.50 L 708.70 787.20 L 707.20 784.00 L 704.00 780.00 L 699.30 776.60 L 695.20 776.40 L 691.20 776.50 L 687.40 777.10 L 683.70 778.10 L 678.90 779.90 L 674.30 782.30 L 670.00 785.20 L 665.90 788.60 L 662.10 792.20 L 655.30 800.50 L 649.80 809.20 L 647.90 807.90 L 646.70 806.70 L 646.00 804.00 L 646.60 800.80 L 655.80 783.20 L 659.70 774.90 L 663.10 766.40 L 666.10 757.80 L 668.80 749.00 L 671.00 740.20 L 672.90 731.20 L 675.60 713.10 L 658.50 711.40 L 649.20 709.30 L 642.20 706.40 L 639.40 701.60 L 646.40 702.20 L 653.20 702.20 L 659.80 701.70 L 666.30 700.60 L 672.80 699.00 L 679.10 697.00 L 685.30 694.60 L 691.40 691.70 L 699.20 687.40 L 706.80 682.50 L 714.20 677.20 L 727.90 665.50 L 734.30 659.40 L 745.70 646.30 L 752.50 636.90 L 755.50 632.00 L 758.00 626.80 L 760.00 621.50 L 761.50 615.80 L 762.10 610.50 L 761.20 604.10 L 760.00 600.40 L 756.60 593.30 L 751.30 591.10 L 746.00 590.50 L 742.40 590.80 L 738.80 591.50 L 735.30 592.80 L 728.80 596.30 L 715.10 606.00 L 704.20 613.00 L 692.90 619.50 L 675.40 628.20 L 657.30 635.50 L 648.10 637.80 L 638.80 639.60 L 629.50 640.80 L 631.00 638.30 L 632.80 636.20 L 634.80 634.40 L 638.30 632.10 L 657.00 623.00 L 663.90 619.10 L 670.60 614.70 L 677.10 610.00 L 683.20 605.00 L 689.10 599.60 L 694.70 594.00 L 700.00 588.00 L 704.90 581.70 L 709.50 575.20 L 713.80 568.50 L 717.70 561.50 L 721.20 554.30 L 724.30 547.00 L 726.90 539.50 L 731.00 524.80 L 732.30 517.80 L 733.20 510.70 L 733.50 503.60 L 733.00 489.30 L 731.00 475.10 L 728.30 462.90 L 725.00 450.90 L 721.10 439.10 L 716.70 427.40 L 711.80 416.00 L 706.20 404.90 L 701.70 396.70 L 691.80 380.90 L 681.20 366.10 L 675.80 359.10 L 664.10 345.80 L 657.80 339.70 L 651.20 333.80 L 644.30 328.40 L 637.00 323.40 L 629.40 318.90 L 621.80 314.90 L 598.80 303.90 L 606.60 302.70 L 608.60 302.80 L 615.70 305.00 L 620.80 306.90 L 633.00 312.90 L 640.10 317.00 L 653.90 325.90 L 676.60 284.80 L 699.70 243.90 L 723.30 203.30 L 727.30 195.50 L 730.70 187.40 L 731.70 189.80 L 732.20 192.10 L 732.10 194.40 L 730.80 199.00 L 729.70 201.30 L 723.70 211.30 L 722.20 214.50 L 667.10 311.30 L 662.60 319.60 L 659.00 328.30 L 668.10 337.10 L 676.80 323.90 L 685.10 310.40 L 724.70 241.80 L 746.60 206.20 L 750.90 198.60 L 755.70 188.20 L 757.70 182.80 L 758.90 176.60 L 759.60 170.30 L 759.60 164.00 L 759.10 157.80 L 758.10 151.60 L 755.30 140.60 L 753.60 136.00 L 751.50 131.70 L 748.90 127.70 L 746.00 123.90 L 739.40 117.10 L 735.60 114.10 L 730.20 110.50 L 724.50 107.60 L 718.50 105.10 L 712.30 103.20 L 705.90 102.00 L 699.50 101.30 L 689.80 101.50 L 680.30 103.20 L 675.70 104.60 L 671.30 106.40 L 667.00 108.60 L 662.80 111.20 L 659.00 114.30 L 655.60 117.80 L 652.50 121.50 L 648.40 127.60 L 644.90 134.10 L 638.60 147.30 L 624.40 179.90 L 610.70 212.70 L 580.50 286.90 L 576.40 294.90 L 570.30 294.60 L 546.10 291.10 L 528.20 289.50 L 513.40 289.70 L 478.00 292.80 L 469.10 293.20 L 461.80 272.10 L 454.00 251.20 L 410.90 141.30 L 407.90 134.80 L 404.60 128.60 L 399.20 120.70 L 396.10 117.00 L 392.60 113.80 L 385.10 108.40 L 381.00 106.20 L 375.40 103.80 L 369.50 102.00 L 363.40 100.70 L 357.30 100.00 L 351.10 99.90 L 344.90 100.30 L 338.70 101.30 L 332.70 102.80 L 326.90 104.90 L 321.20 107.50 L 315.90 110.60 L 311.00 114.20 L 304.30 120.60 L 298.70 128.20 L 296.00 133.50 L 293.90 139.10 L 292.30 144.70 L 291.30 150.60 L 290.90 156.40 L 290.90 162.40 L 291.40 168.30 L 292.30 174.20 L 295.30 185.80 L 299.70 196.80 L 320.80 240.20 L 364.30 326.50 L 368.60 333.60 L 370.40 335.70 L 375.00 332.20 L 379.10 328.00 L 377.50 321.70 L 375.10 315.60 L 359.30 280.30 L 328.50 213.00 L 321.10 195.00 L 316.60 180.00 L 325.90 189.90 L 327.90 197.30 L 330.40 204.50 L 333.40 211.50 L 384.70 324.10 L 398.00 315.30 L 405.00 311.30 L 412.10 307.60 L 419.40 304.40 L 426.80 301.50 L 434.40 299.10 L 442.20 297.20 L 450.10 295.70 L 445.90 300.90 L 434.90 304.30 L 429.60 306.50 L 421.80 310.20 L 407.20 318.70 L 400.20 323.20 L 393.50 328.00 L 387.00 333.20 L 374.70 344.40 L 363.60 356.80 L 348.40 375.50 L 341.50 384.90 L 335.00 394.80 L 330.50 402.40 L 322.50 418.10 L 319.00 426.20 L 315.00 436.30 L 311.40 446.60 L 308.30 457.30 L 306.30 465.40 L 303.50 481.70 L 302.70 490.00 L 302.30 498.20 L 302.30 506.50 L 302.80 514.60 L 303.80 522.80 L 305.30 530.80 L 307.40 538.70 L 310.00 546.60 L 313.20 554.30 L 317.60 563.10 L 322.50 571.60 L 328.00 579.90 L 333.90 587.80 L 340.30 595.30 L 347.10 602.40 L 352.60 607.40 L 364.10 616.60 L 376.50 624.60 L 383.00 628.00 L 389.80 631.10 L 412.60 639.90 L 401.90 641.00 L 394.80 640.80 L 391.30 640.20 L 373.00 634.70 L 355.20 627.90 L 343.70 622.60 L 332.30 616.90 L 321.20 610.80 L 299.70 597.30 L 287.00 588.50 L 282.30 586.30 L 278.50 585.40 L 274.60 584.90 L 266.70 585.00 L 264.00 587.00 L 262.00 589.10 L 260.50 591.40 L 259.40 594.00 L 258.60 596.70 L 258.30 599.50 L 258.40 603.90 L 259.10 608.40 L 260.30 612.80 L 263.90 621.30 L 270.00 631.60 L 274.50 637.90 L 284.20 649.60 L 291.20 656.90 L 298.70 663.80 L 306.50 670.40 L 314.60 676.50 L 323.00 682.30 L 331.70 687.80 L 345.00 695.60 L 358.70 702.80 L 386.30 715.90 L 380.40 715.70 L 374.60 715.00 L 363.20 712.50 L 352.00 709.30 L 354.30 734.80 L 355.50 743.30 L 357.90 754.40 L 359.60 759.80 L 361.60 765.10 L 364.10 770.20 L 371.00 782.20 L 374.50 789.60 L 376.50 794.60 L 378.10 799.80 L 379.30 805.10 L 376.20 803.00 L 370.60 798.20 L 366.90 794.10 L 352.90 776.60 L 349.10 772.60 L 343.30 767.90 L 340.10 765.90 L 332.80 762.40 L 338.30 753.70 L 329.70 750.70 L 338.30 751.20 L 336.60 744.20 L 335.30 737.10 L 331.60 708.70 L 322.50 703.90 L 313.70 698.60 L 305.30 692.70 L 297.20 686.50 L 289.40 679.80 L 282.00 672.70 L 274.90 665.30 L 268.20 657.60 L 261.90 649.50 L 256.90 642.40 L 252.40 634.80 L 249.80 629.50 L 247.70 624.10 L 245.90 618.60 L 244.30 610.10 L 244.10 605.70 L 244.30 597.90 L 245.70 591.30 L 247.00 588.10 L 250.30 582.20 L 252.50 579.60 L 257.50 575.10 L 260.40 573.40 L 263.40 571.90 L 266.70 570.90 L 271.40 570.40 L 276.00 570.50 L 280.60 571.00 L 294.40 573.80 L 290.80 565.40 L 287.80 556.90 L 285.30 548.20 L 283.30 539.30 L 281.80 530.30 L 280.80 521.30 L 280.30 512.30 L 280.30 503.20 L 280.80 494.10 L 281.70 485.10 L 283.20 476.10 L 285.10 467.30 L 287.40 458.10 L 293.20 440.30 L 296.70 431.60 L 301.80 420.20 L 307.50 409.10 L 313.70 398.20 L 320.50 387.60 L 327.60 377.40 L 335.20 367.40 L 342.70 358.60 L 344.90 355.50 L 346.10 353.30 L 347.40 348.80 L 347.40 346.50 L 346.80 344.00 L 329.30 305.80 L 278.30 200.10 L 276.10 194.90 L 274.20 189.50 L 272.70 184.00 L 271.50 178.40 L 270.50 167.00 L 270.90 155.60 L 272.80 144.30 L 276.10 133.40 L 278.30 128.10 L 283.70 118.20 L 286.90 113.50 L 290.40 109.00 L 294.30 104.90 L 298.50 101.00 L 303.00 97.40 L 308.60 93.70 L 314.50 90.40 L 320.60 87.50 L 327.00 85.10 L 333.40 83.20 L 340.00 81.90 L 346.70 81.00 L 353.40 80.70 L 360.10 81.00 L 370.00 82.60 L 379.70 85.60 L 390.40 90.80 L 395.60 93.90 L 400.60 97.30 L 405.20 101.10 L 409.50 105.20 L 415.10 112.20 L 417.40 116.00 L 430.40 144.00 L 440.70 168.10 L 480.90 265.10 L 484.60 272.10 L 485.80 273.60 L 487.30 274.90 L 495.60 274.80 L 520.40 273.10 L 526.00 273.00 L 537.00 273.80 L 554.40 276.10 L 558.70 276.20 L 563.00 275.80 L 565.40 272.80 L 567.40 269.40 L 570.60 262.40 L 597.30 197.80 L 615.80 155.00 L 625.40 133.80 L 631.30 122.00 L 634.50 116.10 L 640.50 107.00 L 646.40 100.50 L 650.80 97.20 L 660.10 91.50 L 665.00 89.10 L 675.20 85.40 L 685.90 83.10 L 696.80 82.30 L 707.70 83.00 L 713.40 77.10 L 696.10 76.40 L 684.50 76.60 L 678.90 77.40 L 671.50 79.30 L 661.40 83.60 L 650.90 89.20 L 643.20 94.60 L 639.70 97.80 L 636.50 101.30 L 633.70 105.10 L 628.60 113.50 L 624.00 122.10 L 615.20 139.60 L 596.20 182.50 L 560.30 269.30 L 541.80 267.50 L 556.10 266.20 L 557.80 265.70 L 560.00 264.10 L 598.30 172.00 L 608.30 149.80 L 618.70 127.90 L 627.30 111.90 L 633.80 101.80 L 637.60 97.20 L 640.40 94.40 L 647.00 89.60 Z" fill="#722616" fill-rule="nonzero" node-id="58" stroke="none" target-height="741" target-width="545.4" target-x="244.1" target-y="74.4"/><path d="M 342.20 74.70 L 348.70 73.80 L 355.00 73.60 L 361.30 74.00 L 367.60 75.00 L 373.80 76.40 L 379.90 78.40 L 391.60 83.50 L 402.80 90.00 L 413.10 97.40 L 416.20 100.50 L 418.80 103.90 L 423.20 111.30 L 427.10 119.00 L 437.80 142.90 L 458.30 191.10 L 488.20 263.80 L 489.10 265.60 L 490.20 266.90 L 491.60 267.80 L 494.00 268.50 L 496.80 268.70 L 508.00 267.40 L 513.60 266.30 L 519.30 265.60 L 524.90 265.50 L 530.50 265.80 L 541.80 267.50 L 560.30 269.30 L 596.20 182.50 L 615.20 139.60 L 624.00 122.10 L 628.60 113.50 L 633.70 105.10 L 636.50 101.30 L 639.70 97.80 L 643.20 94.60 L 650.90 89.20 L 661.40 83.60 L 671.50 79.30 L 678.90 77.40 L 684.50 76.60 L 696.10 76.40 L 713.40 77.10 L 707.70 83.00 L 696.80 82.30 L 685.90 83.10 L 675.20 85.40 L 665.00 89.10 L 660.10 91.50 L 650.80 97.20 L 646.40 100.50 L 640.50 107.00 L 634.50 116.10 L 625.40 133.80 L 606.40 176.30 L 570.60 262.40 L 567.40 269.40 L 565.40 272.80 L 563.00 275.80 L 558.70 276.20 L 554.40 276.10 L 541.30 274.20 L 531.50 273.20 L 526.00 273.00 L 520.40 273.10 L 495.60 274.80 L 487.30 274.90 L 485.80 273.60 L 484.60 272.10 L 480.90 265.10 L 440.70 168.10 L 430.40 144.00 L 417.40 116.00 L 412.50 108.60 L 409.50 105.20 L 405.20 101.10 L 400.60 97.30 L 395.60 93.90 L 385.10 88.00 L 379.70 85.60 L 374.90 83.90 L 370.00 82.60 L 360.10 81.00 L 353.40 80.70 L 346.70 81.00 L 340.00 81.90 L 333.40 83.20 L 327.00 85.10 L 320.60 87.50 L 314.50 90.40 L 308.60 93.70 L 303.00 97.40 L 298.50 101.00 L 294.30 104.90 L 290.40 109.00 L 286.90 113.50 L 283.70 118.20 L 278.30 128.10 L 276.10 133.40 L 272.80 144.30 L 270.90 155.60 L 270.50 161.30 L 270.80 172.70 L 271.50 178.40 L 272.70 184.00 L 274.20 189.50 L 276.10 194.90 L 278.30 200.10 L 329.30 305.80 L 346.80 344.00 L 347.40 346.50 L 347.40 348.80 L 346.10 353.30 L 344.90 355.50 L 342.70 358.60 L 335.20 367.40 L 327.60 377.40 L 320.50 387.60 L 313.70 398.20 L 307.50 409.10 L 301.80 420.20 L 296.70 431.60 L 293.20 440.30 L 287.40 458.10 L 285.10 467.30 L 283.20 476.10 L 281.70 485.10 L 280.80 494.10 L 280.30 503.20 L 280.30 512.30 L 280.80 521.30 L 281.80 530.30 L 283.30 539.30 L 285.30 548.20 L 287.80 556.90 L 290.80 565.40 L 294.40 573.80 L 280.60 571.00 L 276.00 570.50 L 271.40 570.40 L 266.70 570.90 L 263.40 571.90 L 260.40 573.40 L 257.50 575.10 L 252.50 579.60 L 250.30 582.20 L 247.00 588.10 L 245.70 591.30 L 244.30 597.90 L 244.10 605.70 L 244.30 610.10 L 245.90 618.60 L 247.70 624.10 L 249.80 629.50 L 252.40 634.80 L 256.90 642.40 L 261.90 649.50 L 268.20 657.60 L 274.90 665.30 L 282.00 672.70 L 289.40 679.80 L 297.20 686.50 L 305.30 692.70 L 313.70 698.60 L 322.50 703.90 L 331.60 708.70 L 335.30 737.10 L 338.30 751.20 L 326.00 750.80 L 318.90 752.00 L 315.40 753.30 L 311.10 755.40 L 307.10 758.10 L 303.30 761.30 L 300.00 764.90 L 297.30 768.90 L 295.00 773.20 L 293.70 776.60 L 292.20 783.70 L 292.00 787.40 L 292.40 792.30 L 293.20 797.20 L 294.40 801.90 L 296.80 808.90 L 299.70 815.70 L 306.90 828.60 L 313.40 838.60 L 320.50 848.20 L 325.50 854.50 L 336.40 866.10 L 342.20 871.50 L 348.40 876.40 L 354.90 881.10 L 357.40 886.80 L 345.40 883.30 L 336.90 875.50 L 328.70 867.30 L 320.80 858.70 L 313.40 849.80 L 306.50 840.50 L 300.20 830.80 L 295.80 823.30 L 291.80 815.60 L 288.20 807.70 L 285.00 799.60 L 285.30 783.60 L 285.80 778.30 L 287.00 774.00 L 288.60 769.90 L 290.60 766.00 L 293.10 762.30 L 298.90 755.70 L 302.20 752.70 L 309.50 747.70 L 312.40 747.80 L 315.30 747.40 L 326.40 744.00 L 325.50 713.80 L 312.90 706.80 L 307.00 702.80 L 298.40 696.30 L 290.00 689.50 L 273.80 675.30 L 267.00 667.40 L 255.70 653.30 L 247.70 641.40 L 244.20 635.20 L 241.20 628.80 L 238.80 622.20 L 237.40 617.20 L 236.50 612.00 L 236.00 606.60 L 235.90 601.10 L 236.30 597.10 L 237.10 593.40 L 238.30 589.80 L 241.70 583.20 L 243.80 580.00 L 247.40 575.60 L 251.50 571.50 L 260.10 564.10 L 282.30 564.70 L 279.80 558.00 L 277.80 551.30 L 276.20 544.50 L 274.20 530.80 L 273.20 513.30 L 273.80 481.70 L 276.30 470.20 L 279.20 458.90 L 282.70 447.70 L 286.60 436.60 L 291.00 425.70 L 295.80 415.00 L 301.10 404.50 L 306.90 394.30 L 313.10 384.30 L 319.70 374.70 L 326.80 365.30 L 338.70 351.10 L 339.90 348.20 L 339.80 346.70 L 332.30 329.60 L 303.10 268.80 L 291.20 242.50 L 275.10 210.00 L 271.70 202.70 L 265.90 187.70 L 264.60 176.80 L 264.00 165.60 L 264.00 158.20 L 264.60 150.80 L 265.60 143.50 L 266.70 138.10 L 268.30 132.90 L 270.30 127.70 L 275.20 117.60 L 278.00 112.90 L 281.20 108.50 L 284.70 104.40 L 289.90 99.20 L 295.40 94.60 L 301.40 90.40 L 307.70 86.60 L 314.30 83.30 L 321.10 80.50 L 328.10 78.10 L 335.10 76.20 L 342.20 74.70 Z" fill="#e0c39f" fill-rule="nonzero" node-id="60" stroke="none" target-height="813.2" target-width="477.50003" target-x="235.9" target-y="73.6"/><path d="M 713.40 80.80 L 714.80 79.40 L 721.30 80.20 L 727.70 81.60 L 734.00 83.70 L 740.10 86.20 L 746.00 89.30 L 751.60 92.90 L 757.00 97.00 L 761.90 101.50 L 766.40 106.30 L 770.50 111.60 L 774.00 117.20 L 777.00 123.10 L 780.10 129.90 L 782.60 136.80 L 784.50 143.90 L 785.80 151.20 L 786.70 158.60 L 786.90 166.00 L 786.70 173.40 L 786.00 180.80 L 784.70 188.10 L 780.20 198.80 L 775.20 209.30 L 769.80 219.60 L 753.40 248.10 L 705.90 333.30 L 698.60 348.50 L 707.10 359.30 L 715.00 370.40 L 722.40 381.80 L 729.30 393.60 L 734.50 403.30 L 739.20 413.20 L 743.50 423.20 L 747.50 433.40 L 754.20 453.50 L 756.90 463.50 L 759.00 473.70 L 760.60 484.00 L 761.60 494.30 L 762.00 504.70 L 761.90 512.50 L 760.60 528.00 L 759.30 535.60 L 757.70 543.20 L 755.60 550.70 L 753.20 558.00 L 750.30 565.30 L 753.90 566.00 L 757.40 567.10 L 760.70 568.50 L 763.80 570.30 L 767.60 573.20 L 771.10 576.50 L 774.20 580.20 L 777.00 584.30 L 779.40 588.50 L 781.30 592.90 L 782.80 599.20 L 783.60 605.50 L 783.80 611.90 L 783.40 618.40 L 782.40 624.70 L 780.80 630.90 L 778.80 637.00 L 776.20 642.80 L 773.00 648.50 L 767.30 657.30 L 760.90 665.90 L 754.10 674.00 L 746.80 681.70 L 739.10 689.00 L 731.00 695.80 L 722.40 702.10 L 713.50 707.90 L 704.30 713.20 L 703.50 717.70 L 702.10 731.30 L 697.80 753.00 L 705.00 754.50 L 711.60 757.40 L 715.70 760.00 L 719.40 763.00 L 722.80 766.60 L 725.70 770.40 L 728.20 774.60 L 730.20 779.00 L 731.70 783.70 L 732.60 788.40 L 733.20 798.20 L 733.10 803.00 L 731.60 812.30 L 729.90 818.40 L 727.60 824.40 L 724.90 830.20 L 718.50 841.20 L 714.90 846.50 L 707.50 855.40 L 699.70 864.00 L 694.10 869.50 L 688.30 874.60 L 682.30 879.40 L 675.90 883.80 L 669.20 887.70 L 662.20 891.10 L 652.30 891.50 L 635.90 891.10 L 622.90 889.50 L 616.50 888.20 L 610.20 886.50 L 603.90 884.40 L 593.90 874.80 L 584.30 864.90 L 589.80 865.20 L 594.20 869.20 L 598.90 872.70 L 603.90 875.70 L 609.10 878.30 L 614.50 880.50 L 620.10 882.20 L 631.60 884.60 L 637.50 885.20 L 643.40 885.40 L 655.10 885.00 L 660.80 883.30 L 666.20 881.10 L 671.40 878.40 L 681.10 871.80 L 692.30 862.00 L 698.50 855.80 L 707.30 845.70 L 711.30 840.30 L 714.90 834.70 L 718.10 828.80 L 720.90 822.80 L 723.30 816.50 L 725.20 810.10 L 726.60 803.50 L 726.80 798.80 L 726.60 794.20 L 725.90 789.50 L 724.70 785.00 L 723.00 780.70 L 720.90 776.70 L 718.90 773.80 L 714.10 768.80 L 708.80 764.90 L 706.20 763.70 L 703.50 762.80 L 699.30 762.20 L 695.00 762.00 L 686.30 762.40 L 689.70 754.00 L 692.40 743.10 L 696.50 716.30 L 697.90 709.70 L 702.90 706.00 L 718.70 696.10 L 723.80 692.50 L 728.60 688.50 L 742.30 675.80 L 748.90 669.10 L 755.20 662.10 L 762.80 652.30 L 769.20 641.70 L 771.80 636.10 L 774.10 630.20 L 776.30 621.60 L 777.20 612.50 L 776.50 603.60 L 775.60 599.20 L 774.20 595.00 L 772.30 590.90 L 770.00 587.20 L 767.20 583.70 L 761.80 578.60 L 759.60 577.10 L 753.50 574.40 L 749.50 573.30 L 741.40 572.00 L 749.30 547.90 L 751.50 539.70 L 753.60 528.60 L 754.70 513.80 L 754.80 504.70 L 754.40 495.60 L 753.50 486.50 L 752.20 477.50 L 750.40 468.60 L 748.30 459.70 L 745.80 451.00 L 741.90 439.40 L 737.40 428.00 L 732.40 416.80 L 727.00 405.90 L 721.20 395.20 L 715.10 384.70 L 711.20 378.70 L 698.60 361.00 L 694.70 354.90 L 691.40 348.50 L 693.70 341.00 L 695.40 337.40 L 701.00 326.90 L 763.80 216.40 L 771.10 202.10 L 775.90 190.20 L 778.70 179.60 L 779.90 168.80 L 779.90 161.60 L 779.30 154.40 L 778.00 147.20 L 776.20 140.20 L 773.80 133.30 L 770.80 126.70 L 767.30 120.30 L 763.30 114.30 L 758.80 108.60 L 750.50 101.10 L 745.90 97.80 L 741.20 94.70 L 736.20 92.10 L 731.10 89.80 L 725.80 87.90 L 720.40 86.50 L 714.90 85.60 L 713.40 80.80 Z" fill="#d6b698" fill-rule="nonzero" node-id="62" stroke="none" target-height="812.1" target-width="202.60004" target-x="584.3" target-y="79.4"/><path d="M 655.50 150.20 L 663.50 140.60 L 668.10 136.20 L 673.10 132.30 L 676.60 130.00 L 680.30 128.20 L 684.10 126.70 L 688.10 125.70 L 692.20 125.20 L 696.60 125.30 L 701.00 126.20 L 705.20 127.60 L 709.10 129.30 L 713.00 131.50 L 716.60 134.10 L 723.00 140.00 L 725.90 143.50 L 729.20 148.40 L 732.00 153.70 L 734.30 159.20 L 736.40 167.80 L 737.10 176.50 L 730.70 187.40 L 701.70 211.60 L 672.30 235.50 L 642.60 258.80 L 608.90 284.50 L 605.60 287.60 L 602.60 291.00 L 597.60 298.40 L 595.50 302.50 L 590.80 299.20 L 589.90 297.80 L 589.70 295.60 L 593.50 281.80 L 597.30 269.60 L 601.60 257.60 L 611.50 234.10 L 628.10 197.60 L 634.20 185.30 L 645.40 165.40 L 655.50 150.20 Z" fill="#f7eae9" fill-rule="nonzero" node-id="64" stroke="none" target-height="177.3" target-width="147.39996" target-x="589.7" target-y="125.2"/><path d="M 341.90 130.20 L 348.50 127.60 L 355.40 126.50 L 360.10 126.50 L 364.70 127.00 L 369.30 128.10 L 373.80 129.80 L 378.00 131.90 L 381.90 134.50 L 386.80 138.30 L 391.40 142.60 L 395.70 147.10 L 399.60 152.00 L 403.20 157.10 L 406.40 162.40 L 415.00 179.60 L 423.00 197.00 L 426.40 205.90 L 442.80 257.30 L 446.80 271.50 L 449.20 281.10 L 451.10 290.70 L 452.60 300.40 L 445.90 300.90 L 450.10 295.70 L 432.00 281.50 L 414.20 266.90 L 396.70 252.00 L 362.40 221.30 L 345.50 205.60 L 340.80 201.50 L 325.90 189.90 L 316.60 180.00 L 314.10 173.40 L 313.60 171.10 L 313.70 168.80 L 315.90 161.60 L 320.20 152.00 L 322.80 147.40 L 325.80 143.20 L 329.20 139.30 L 335.10 134.20 L 341.90 130.20 Z" fill="#f8e8e8" fill-rule="nonzero" node-id="66" stroke="none" target-height="174.4" target-width="139" target-x="313.6" target-y="126.5"/><path d="M 739.90 179.20 L 745.90 168.10 L 753.70 151.00 L 756.70 145.40 L 758.10 151.60 L 759.10 157.80 L 759.60 164.00 L 759.60 170.30 L 758.90 176.60 L 757.70 182.80 L 755.70 188.20 L 750.90 198.60 L 746.60 206.20 L 733.00 228.30 L 722.20 214.50 L 723.70 211.30 L 729.70 201.30 L 731.60 196.70 L 732.10 194.40 L 732.20 192.10 L 731.70 189.80 L 730.70 187.40 L 737.10 176.50 L 739.90 179.20 Z" fill="#dbc3c8" fill-rule="nonzero" node-id="68" stroke="none" target-height="82.90001" target-width="37.399963" target-x="722.2" target-y="145.4"/><path d="M 612.50 281.70 L 642.60 258.80 L 672.30 235.50 L 701.70 211.60 L 730.70 187.40 L 727.30 195.50 L 723.30 203.30 L 699.70 243.90 L 676.60 284.80 L 653.90 325.90 L 640.10 317.00 L 633.00 312.90 L 620.80 306.90 L 615.70 305.00 L 608.60 302.80 L 606.60 302.70 L 598.80 303.90 L 595.50 302.50 L 597.60 298.40 L 602.60 291.00 L 605.60 287.60 L 608.90 284.50 L 612.50 281.70 Z" fill="#e49ba2" fill-rule="nonzero" node-id="70" stroke="none" target-height="138.5" target-width="135.20001" target-x="595.5" target-y="187.4"/><path d="M 325.90 189.90 L 340.80 201.50 L 345.50 205.60 L 379.40 236.80 L 414.20 266.90 L 432.00 281.50 L 450.10 295.70 L 442.20 297.20 L 434.40 299.10 L 426.80 301.50 L 419.40 304.40 L 412.10 307.60 L 405.00 311.30 L 398.00 315.30 L 384.70 324.10 L 333.40 211.50 L 330.40 204.50 L 327.90 197.30 L 325.90 189.90 Z" fill="#e8a2a8" fill-rule="nonzero" node-id="72" stroke="none" target-height="134.20001" target-width="124.20001" target-x="325.9" target-y="189.9"/><path d="M 722.20 214.50 L 733.00 228.30 L 716.60 255.40 L 685.10 310.40 L 676.80 323.90 L 668.10 337.10 L 659.00 328.30 L 662.60 319.60 L 667.10 311.30 L 722.20 214.50 Z" fill="#e9e5eb" fill-rule="nonzero" node-id="74" stroke="none" target-height="122.600006" target-width="74" target-x="659" target-y="214.5"/><path d="M 363.60 356.80 L 374.70 344.40 L 387.00 333.20 L 393.50 328.00 L 400.20 323.20 L 407.20 318.70 L 414.40 314.50 L 412.50 320.60 L 411.20 323.20 L 408.60 326.90 L 405.50 330.40 L 398.50 336.50 L 387.20 345.70 L 378.60 351.90 L 373.90 354.30 L 370.60 355.50 L 367.20 356.30 L 363.60 356.80 Z" fill="#e3d2cf" fill-rule="nonzero" node-id="76" stroke="none" target-height="42.299988" target-width="50.799988" target-x="363.6" target-y="314.5"/><path d="M 629.40 318.90 L 637.00 323.40 L 644.30 328.40 L 651.20 333.80 L 657.80 339.70 L 664.10 345.80 L 670.10 352.30 L 681.20 366.10 L 691.80 380.90 L 696.90 388.70 L 706.20 404.90 L 711.80 416.00 L 716.70 427.40 L 721.10 439.10 L 725.00 450.90 L 728.30 462.90 L 731.00 475.10 L 728.00 474.30 L 722.60 471.80 L 707.90 461.10 L 707.70 470.80 L 700.40 443.90 L 697.20 434.80 L 693.40 426.00 L 690.20 419.50 L 682.80 407.20 L 676.40 398.60 L 671.20 394.10 L 666.80 391.30 L 662.30 388.60 L 659.30 403.20 L 658.10 392.40 L 640.50 393.90 L 631.80 395.20 L 605.70 400.30 L 611.20 397.70 L 616.80 395.50 L 622.50 393.90 L 631.20 392.10 L 657.90 388.90 L 656.50 384.00 L 652.80 374.60 L 649.50 367.80 L 638.90 347.60 L 635.60 340.80 L 632.90 333.80 L 631.30 329.00 L 629.40 318.90 Z" fill="#d6c6c7" fill-rule="nonzero" node-id="78" stroke="none" target-height="156.20001" target-width="125.29999" target-x="605.7" target-y="318.9"/><path d="M 319.00 426.20 L 322.50 418.10 L 330.50 402.40 L 335.00 394.80 L 341.50 384.90 L 348.40 375.50 L 355.80 366.30 L 356.10 369.30 L 355.60 374.80 L 354.50 378.80 L 352.90 382.70 L 344.90 397.70 L 331.00 426.80 L 323.10 440.90 L 317.80 434.40 L 319.00 426.20 Z" fill="#f0ebea" fill-rule="nonzero" node-id="80" stroke="none" target-height="74.600006" target-width="38.30002" target-x="317.8" target-y="366.3"/><path d="M 605.70 400.30 L 631.80 395.20 L 640.50 393.90 L 658.10 392.40 L 659.30 403.20 L 655.80 407.30 L 636.80 408.80 L 627.30 410.20 L 618.00 412.20 L 616.00 416.00 L 627.90 415.90 L 637.20 418.60 L 642.90 421.30 L 645.60 423.20 L 646.20 435.20 L 641.40 432.10 L 636.40 429.60 L 631.40 427.60 L 626.10 426.20 L 620.70 425.20 L 615.30 424.70 L 609.90 424.70 L 604.30 425.10 L 598.90 425.90 L 593.50 427.20 L 588.20 428.90 L 583.00 430.90 L 575.60 427.40 L 575.50 423.90 L 576.00 421.00 L 576.90 418.40 L 578.20 416.00 L 579.90 413.90 L 581.90 411.90 L 585.40 409.40 L 589.30 407.20 L 605.70 400.30 Z" fill="#6b1f13" fill-rule="nonzero" node-id="82" stroke="none" target-height="42.80002" target-width="83.79999" target-x="575.5" target-y="392.4"/><path d="M 384.10 404.60 L 384.20 392.80 L 392.30 392.60 L 400.50 392.90 L 408.70 393.60 L 416.80 394.70 L 424.80 396.30 L 432.70 398.40 L 440.40 401.10 L 447.80 404.30 L 455.10 408.10 L 457.50 409.70 L 459.50 411.60 L 462.90 416.10 L 465.90 420.90 L 461.70 429.10 L 448.50 424.80 L 441.70 423.20 L 434.70 422.20 L 425.50 421.90 L 420.90 422.30 L 416.40 423.20 L 412.00 424.50 L 407.60 426.30 L 398.50 433.10 L 396.60 434.00 L 394.20 434.30 L 392.20 433.30 L 390.20 430.30 L 390.60 427.70 L 392.40 423.30 L 393.70 421.50 L 395.90 419.50 L 398.40 417.70 L 401.40 416.20 L 406.10 414.60 L 411.10 413.50 L 420.60 412.30 L 411.60 409.70 L 402.50 407.60 L 384.10 404.60 Z" fill="#6c1d11" fill-rule="nonzero" node-id="84" stroke="none" target-height="41.69998" target-width="81.79999" target-x="384.1" target-y="392.6"/><path d="M 618.00 412.20 L 627.30 410.20 L 636.80 408.80 L 655.80 407.30 L 636.90 412.00 L 632.30 413.70 L 627.90 415.90 L 616.00 416.00 L 618.00 412.20 Z" fill="#d5bbb9" fill-rule="nonzero" node-id="86" stroke="none" target-height="8.700012" target-width="39.799988" target-x="616" target-y="407.3"/><path d="M 637.50 698.40 L 642.20 706.40 L 645.70 708.00 L 652.90 710.30 L 658.50 711.40 L 675.60 713.10 L 674.40 722.20 L 671.00 740.20 L 668.80 749.00 L 666.10 757.80 L 663.10 766.40 L 659.70 774.90 L 655.80 783.20 L 647.70 798.30 L 646.10 802.40 L 646.10 805.40 L 646.70 806.70 L 647.90 807.90 L 649.80 809.20 L 647.90 814.70 L 646.50 820.30 L 645.60 826.00 L 645.20 831.70 L 645.20 843.40 L 647.10 860.70 L 651.10 857.80 L 654.70 854.70 L 657.90 851.30 L 662.40 845.80 L 666.40 839.90 L 677.40 821.50 L 685.00 809.40 L 688.30 803.00 L 691.20 796.50 L 699.30 776.60 L 704.00 780.00 L 707.20 784.00 L 708.70 787.20 L 709.70 790.50 L 710.30 794.00 L 710.20 801.30 L 709.70 805.00 L 708.50 810.40 L 707.00 815.40 L 702.60 823.20 L 697.70 830.50 L 692.30 837.60 L 686.50 844.30 L 680.20 850.60 L 673.60 856.40 L 666.60 861.80 L 659.20 866.80 L 656.20 868.40 L 653.10 869.60 L 646.50 870.90 L 639.80 870.90 L 634.80 870.00 L 629.90 868.60 L 622.40 865.60 L 615.00 862.10 L 607.70 858.30 L 597.20 852.00 L 587.00 845.20 L 595.50 839.70 L 603.50 833.50 L 607.00 829.90 L 610.10 825.80 L 599.50 829.20 L 578.50 836.80 L 567.60 839.40 L 556.60 841.40 L 545.60 842.80 L 523.30 844.30 L 512.10 844.40 L 478.60 843.90 L 460.80 842.50 L 451.90 841.30 L 437.30 838.40 L 426.00 834.80 L 420.50 832.50 L 415.20 829.80 L 410.10 826.60 L 423.30 826.20 L 436.50 826.50 L 456.00 828.80 L 475.70 830.70 L 488.80 831.60 L 515.10 832.20 L 528.20 831.90 L 541.30 830.90 L 554.40 829.30 L 568.90 827.20 L 576.20 825.90 L 588.10 822.60 L 597.00 818.80 L 601.20 816.30 L 605.20 813.40 L 608.90 810.10 L 614.30 804.10 L 619.10 797.80 L 623.40 791.20 L 627.20 784.30 L 630.60 777.20 L 633.60 769.80 L 636.20 762.20 L 640.30 746.80 L 642.70 735.10 L 644.80 721.30 L 644.70 719.50 L 644.20 717.70 L 642.90 715.30 L 637.70 708.40 L 637.50 698.40 Z" fill="#d5bbb9" fill-rule="nonzero" node-id="88" stroke="none" target-height="172.5" target-width="300.19998" target-x="410.1" target-y="698.4"/><path d="M 313.20 554.30 L 310.00 546.60 L 307.40 538.70 L 305.30 530.80 L 303.80 522.80 L 302.80 514.60 L 302.30 506.50 L 302.30 498.20 L 302.70 490.00 L 303.50 481.70 L 306.30 465.40 L 308.30 457.30 L 311.40 446.60 L 315.00 436.30 L 319.00 426.20 L 317.80 434.40 L 312.00 455.70 L 309.50 466.40 L 307.40 477.30 L 306.30 484.50 L 305.30 499.10 L 305.40 506.40 L 306.10 513.70 L 307.20 521.00 L 314.50 521.50 L 326.00 543.00 L 330.10 550.00 L 334.60 556.80 L 339.40 563.30 L 343.90 568.80 L 353.50 578.90 L 358.70 583.50 L 366.00 589.40 L 373.50 594.80 L 381.40 599.90 L 389.50 604.60 L 406.00 613.20 L 417.70 618.00 L 429.60 622.30 L 441.70 626.00 L 453.90 629.10 L 466.30 631.70 L 478.80 633.90 L 491.30 635.50 L 503.90 636.70 L 516.50 637.50 L 549.80 635.10 L 572.00 632.30 L 583.00 630.40 L 593.80 628.00 L 604.50 625.00 L 615.10 621.40 L 623.00 617.90 L 630.50 613.80 L 637.60 609.40 L 644.50 604.40 L 651.00 599.10 L 657.20 593.40 L 663.10 587.40 L 668.70 581.00 L 679.00 567.60 L 688.10 553.20 L 693.60 543.10 L 698.50 533.00 L 702.90 522.70 L 704.50 518.10 L 717.00 520.90 L 729.70 522.60 L 729.20 531.80 L 726.90 539.50 L 724.30 547.00 L 721.20 554.30 L 717.70 561.50 L 713.80 568.50 L 709.50 575.20 L 704.90 581.70 L 700.00 588.00 L 694.70 594.00 L 689.10 599.60 L 683.20 605.00 L 677.10 610.00 L 670.60 614.70 L 663.90 619.10 L 657.00 623.00 L 638.30 632.10 L 634.80 634.40 L 632.80 636.20 L 631.00 638.30 L 629.50 640.80 L 638.80 639.60 L 648.10 637.80 L 657.30 635.50 L 645.80 640.90 L 641.80 642.20 L 638.20 642.20 L 627.40 640.60 L 622.70 640.60 L 620.30 641.00 L 601.60 646.50 L 592.10 648.70 L 582.60 650.60 L 569.70 652.60 L 556.80 654.00 L 543.80 654.80 L 530.80 655.00 L 517.80 654.70 L 495.00 653.00 L 485.30 651.80 L 461.10 647.50 L 446.70 644.20 L 418.10 637.20 L 412.60 639.90 L 389.80 631.10 L 383.00 628.00 L 376.50 624.60 L 370.20 620.70 L 358.20 612.20 L 347.10 602.40 L 340.30 595.30 L 333.90 587.80 L 328.00 579.90 L 322.50 571.60 L 317.60 563.10 L 313.20 554.30 Z M 481.20 640.20 L 484.40 643.30 L 489.00 645.60 L 492.00 646.50 L 504.80 648.50 L 509.10 649.10 L 513.40 649.10 L 517.60 648.70 L 523.90 647.70 L 530.20 646.10 L 526.80 643.80 L 519.20 644.00 L 511.50 643.80 L 496.40 642.30 L 481.20 640.20 Z" fill="#d4bdbb" fill-rule="nonzero" node-id="90" stroke="none" target-height="228.79999" target-width="427.40002" target-x="302.3" target-y="426.2"/><path d="M 500.20 436.80 L 508.70 434.90 L 513.10 434.50 L 519.80 434.40 L 526.50 434.80 L 539.60 436.70 L 539.40 439.60 L 538.60 442.10 L 537.40 444.30 L 535.80 446.40 L 531.70 449.70 L 528.10 451.50 L 524.30 453.00 L 524.40 465.50 L 524.70 469.60 L 526.40 477.80 L 532.60 479.50 L 538.90 480.60 L 545.20 481.30 L 554.80 481.70 L 583.70 480.50 L 590.60 476.30 L 592.70 474.70 L 594.40 472.70 L 595.80 470.40 L 597.10 463.50 L 597.20 449.40 L 601.70 448.80 L 603.80 456.10 L 605.50 463.40 L 606.70 470.80 L 607.50 478.20 L 607.90 485.80 L 607.90 493.30 L 607.40 500.80 L 606.50 508.20 L 605.20 515.70 L 603.50 523.00 L 601.40 530.20 L 598.90 537.20 L 595.50 544.60 L 591.50 551.70 L 587.00 558.60 L 583.30 563.50 L 579.30 568.00 L 574.90 572.30 L 570.30 576.20 L 565.40 579.80 L 560.20 582.90 L 554.70 585.50 L 548.90 587.80 L 538.50 589.10 L 534.70 585.30 L 550.20 579.90 L 554.20 578.00 L 558.10 575.80 L 563.50 572.00 L 568.50 567.60 L 577.70 557.90 L 581.00 554.00 L 586.50 545.70 L 588.70 541.30 L 591.30 535.20 L 593.40 528.90 L 595.00 522.30 L 596.30 515.70 L 597.70 502.30 L 597.90 492.20 L 597.70 482.30 L 591.20 484.60 L 584.60 486.50 L 577.80 487.90 L 571.00 488.80 L 564.10 489.40 L 550.30 489.30 L 543.40 488.70 L 534.20 487.40 L 525.20 485.40 L 516.50 482.90 L 509.70 485.50 L 502.90 487.50 L 496.00 488.90 L 489.00 489.80 L 481.90 490.20 L 474.80 490.10 L 467.60 489.60 L 453.50 487.70 L 458.60 519.30 L 462.00 534.90 L 463.60 540.00 L 469.00 553.80 L 472.70 560.80 L 475.10 564.00 L 478.70 567.90 L 482.70 571.40 L 487.10 574.60 L 491.80 577.30 L 496.60 579.60 L 513.60 585.90 L 504.30 588.40 L 498.70 588.20 L 491.50 584.90 L 484.50 581.10 L 480.00 578.30 L 471.90 571.70 L 468.30 567.90 L 465.10 563.80 L 462.20 559.20 L 455.50 546.00 L 450.30 532.10 L 447.60 522.60 L 445.50 512.90 L 443.90 503.10 L 442.80 493.20 L 442.20 483.30 L 442.20 469.90 L 442.50 466.40 L 444.40 459.60 L 447.50 453.20 L 448.50 456.50 L 450.70 467.40 L 451.80 470.80 L 453.40 473.90 L 454.80 475.60 L 456.50 477.20 L 458.80 478.50 L 462.40 479.90 L 470.00 481.90 L 475.80 482.70 L 481.70 483.00 L 493.40 482.80 L 508.00 480.20 L 514.20 477.20 L 516.00 473.40 L 517.10 469.50 L 517.80 465.40 L 518.00 461.30 L 517.60 453.10 L 508.40 448.90 L 503.30 445.90 L 500.70 442.90 L 499.90 441.10 L 499.80 439.20 L 500.20 436.80 Z M 514.90 441.60 L 515.10 443.00 L 515.90 443.90 L 518.50 444.90 L 521.50 444.60 L 523.90 443.30 L 523.60 441.90 L 522.90 440.90 L 521.70 440.30 L 520.20 440.00 L 517.20 440.30 L 514.90 441.60 Z" fill="#6b1b1d" fill-rule="nonzero" node-id="92" stroke="none" target-height="154.69998" target-width="165.70001" target-x="442.2" target-y="434.4"/><path d="M 363.80 443.40 L 377.80 441.90 L 391.90 441.60 L 406.00 442.70 L 408.80 443.60 L 413.80 446.20 L 416.00 447.90 L 418.70 450.70 L 420.80 453.80 L 422.50 457.20 L 423.80 460.80 L 424.40 464.50 L 424.50 468.30 L 424.20 471.20 L 422.50 476.50 L 418.70 482.50 L 416.00 485.50 L 412.90 488.10 L 407.90 491.50 L 402.40 494.50 L 391.30 499.60 L 373.20 506.00 L 364.00 508.80 L 336.10 516.20 L 328.40 517.60 L 324.00 517.60 L 321.00 516.50 L 319.80 515.50 L 318.80 514.10 L 316.30 507.20 L 314.80 501.90 L 313.80 496.50 L 313.30 491.00 L 313.30 487.40 L 314.30 480.30 L 315.30 476.90 L 316.80 473.60 L 318.70 470.40 L 321.40 466.70 L 324.30 463.30 L 331.00 457.60 L 338.60 452.90 L 344.70 450.00 L 351.00 447.50 L 363.80 443.40 Z M 382.90 464.60 L 386.00 463.80 L 389.10 462.70 L 391.80 461.10 L 394.30 459.10 L 395.70 457.50 L 397.80 453.70 L 392.40 454.00 L 389.40 454.70 L 384.90 456.80 L 382.70 459.30 L 382.20 460.80 L 382.20 462.50 L 382.90 464.60 Z" fill="#f3cdd0" fill-rule="nonzero" node-id="94" stroke="none" target-height="75.99997" target-width="111.20001" target-x="313.3" target-y="441.6"/><path d="M 514.90 441.60 L 517.20 440.30 L 520.20 440.00 L 522.90 440.90 L 523.60 441.90 L 523.90 443.30 L 522.90 444.00 L 521.50 444.60 L 518.50 444.90 L 515.90 443.90 L 515.10 443.00 L 514.90 441.60 Z" fill="#a55f58" fill-rule="nonzero" node-id="96" stroke="none" target-height="4.899994" target-width="9" target-x="514.9" target-y="440"/><path d="M 641.10 443.90 L 646.40 442.60 L 651.70 441.90 L 656.90 441.80 L 662.10 442.20 L 672.40 444.20 L 703.10 453.10 L 707.70 470.80 L 708.70 476.80 L 709.30 482.70 L 709.40 488.70 L 709.20 494.60 L 708.20 502.60 L 706.70 510.40 L 704.50 518.10 L 702.90 522.70 L 701.20 518.30 L 673.90 510.10 L 664.80 507.10 L 656.00 503.70 L 647.30 499.70 L 636.30 493.50 L 628.70 488.10 L 624.50 484.00 L 621.40 479.20 L 619.40 473.70 L 619.10 470.80 L 619.10 464.70 L 619.60 461.80 L 620.70 459.30 L 623.90 454.70 L 626.00 452.70 L 629.50 450.00 L 633.30 447.70 L 641.10 443.90 Z M 643.20 458.70 L 646.70 462.30 L 650.50 465.40 L 659.00 470.50 L 658.70 467.60 L 658.00 465.00 L 656.90 462.90 L 655.30 461.00 L 653.40 459.60 L 651.20 458.60 L 648.80 458.10 L 646.10 458.10 L 643.20 458.70 Z" fill="#f2cbcc" fill-rule="nonzero" node-id="98" stroke="none" target-height="80.900024" target-width="90.30005" target-x="619.1" target-y="441.8"/><path d="M 382.90 464.60 L 382.20 462.50 L 382.20 460.80 L 382.70 459.30 L 383.70 458.00 L 386.60 455.80 L 389.40 454.70 L 392.40 454.00 L 397.80 453.70 L 396.90 455.70 L 394.30 459.10 L 391.80 461.10 L 389.10 462.70 L 386.00 463.80 L 382.90 464.60 Z" fill="#d89ea0" fill-rule="nonzero" node-id="100" stroke="none" target-height="10.899994" target-width="15.599976" target-x="382.2" target-y="453.7"/><path d="M 643.20 458.70 L 646.10 458.10 L 648.80 458.10 L 651.20 458.60 L 653.40 459.60 L 655.30 461.00 L 656.90 462.90 L 658.00 465.00 L 658.70 467.60 L 659.00 470.50 L 650.50 465.40 L 646.70 462.30 L 643.20 458.70 Z" fill="#df9390" fill-rule="nonzero" node-id="102" stroke="none" target-height="12.399994" target-width="15.799988" target-x="643.2" target-y="458.1"/><path d="M 707.90 461.10 L 722.60 471.80 L 728.00 474.30 L 731.00 475.10 L 733.00 489.30 L 733.50 503.60 L 733.20 510.70 L 732.30 517.80 L 731.00 524.80 L 729.20 531.80 L 729.70 522.60 L 717.00 520.90 L 704.50 518.10 L 706.70 510.40 L 708.20 502.60 L 709.20 494.60 L 709.40 488.70 L 709.30 482.70 L 708.70 476.80 L 707.70 470.80 L 707.90 461.10 Z M 716.90 491.20 L 717.20 494.10 L 718.00 496.70 L 719.10 498.90 L 720.70 501.00 L 724.60 504.60 L 731.50 508.90 L 732.60 499.70 L 732.40 498.00 L 731.80 496.40 L 730.70 495.00 L 723.90 492.80 L 716.90 491.20 Z" fill="#d7828a" fill-rule="nonzero" node-id="104" stroke="none" target-height="70.69998" target-width="29" target-x="704.5" target-y="461.1"/><path d="M 453.50 487.70 L 467.60 489.60 L 474.80 490.10 L 481.90 490.20 L 489.00 489.80 L 496.00 489.00 L 502.90 487.50 L 509.70 485.50 L 516.50 482.90 L 525.20 485.40 L 534.20 487.40 L 543.40 488.70 L 550.30 489.30 L 564.10 489.40 L 571.00 488.80 L 577.80 487.90 L 584.60 486.50 L 591.20 484.60 L 597.70 482.30 L 597.90 492.20 L 597.70 502.30 L 597.10 509.10 L 595.00 522.30 L 593.40 528.90 L 591.30 535.20 L 588.70 541.30 L 586.50 545.70 L 581.00 554.00 L 577.70 557.90 L 575.00 554.50 L 568.80 548.70 L 565.40 546.30 L 560.60 543.50 L 555.60 541.20 L 550.30 539.30 L 539.20 536.60 L 533.60 535.80 L 525.00 535.20 L 510.90 535.20 L 505.10 535.80 L 493.90 538.30 L 483.00 542.10 L 475.10 545.70 L 467.60 549.90 L 463.60 540.00 L 460.10 527.20 L 458.60 519.30 L 453.50 487.70 Z" fill="#7b1f27" fill-rule="nonzero" node-id="106" stroke="none" target-height="75.60004" target-width="144.40002" target-x="453.5" target-y="482.3"/><path d="M 716.90 491.20 L 723.90 492.80 L 730.70 495.00 L 731.80 496.40 L 732.40 498.00 L 732.40 501.60 L 731.50 508.90 L 724.60 504.60 L 720.70 501.00 L 719.10 498.90 L 718.00 496.70 L 717.20 494.10 L 716.90 491.20 Z" fill="#e7c3c1" fill-rule="nonzero" node-id="108" stroke="none" target-height="17.699982" target-width="15.5" target-x="716.9" target-y="491.2"/><path d="M 467.60 549.90 L 475.10 545.70 L 483.00 542.10 L 493.90 538.30 L 505.10 535.80 L 510.90 535.20 L 525.00 535.20 L 533.60 535.80 L 539.20 536.60 L 550.30 539.30 L 555.60 541.20 L 560.60 543.50 L 565.40 546.30 L 568.80 548.70 L 575.00 554.50 L 577.70 557.90 L 568.50 567.60 L 563.50 572.00 L 558.10 575.80 L 554.20 578.10 L 550.20 579.90 L 546.00 581.40 L 538.60 582.40 L 523.70 583.20 L 516.30 583.00 L 501.50 581.60 L 496.60 579.60 L 491.80 577.30 L 487.10 574.60 L 482.70 571.40 L 478.70 567.90 L 475.10 564.00 L 470.70 557.40 L 467.60 549.90 Z" fill="#dd8a9a" fill-rule="nonzero" node-id="110" stroke="none" target-height="48" target-width="110.100006" target-x="467.6" target-y="535.2"/><path d="M 501.50 581.60 L 516.30 583.00 L 523.70 583.20 L 538.60 582.40 L 546.00 581.40 L 534.70 585.30 L 539.90 590.50 L 521.90 591.40 L 515.90 591.20 L 511.90 590.70 L 508.10 589.70 L 504.30 588.40 L 513.60 585.90 L 501.50 581.60 Z" fill="#8c393c" fill-rule="nonzero" node-id="112" stroke="none" target-height="10" target-width="44.5" target-x="501.5" target-y="581.4"/><path d="M 265.90 625.00 L 262.00 617.10 L 260.30 612.80 L 259.10 608.40 L 258.40 603.90 L 258.30 599.50 L 258.60 596.70 L 259.40 594.00 L 260.50 591.40 L 262.00 589.10 L 264.00 587.00 L 266.70 585.00 L 268.00 590.80 L 269.60 596.50 L 271.70 602.00 L 274.10 607.30 L 277.00 612.50 L 280.20 617.40 L 283.70 622.10 L 299.80 641.10 L 313.10 654.40 L 322.50 662.70 L 332.30 670.50 L 342.50 677.80 L 353.10 684.70 L 363.90 691.00 L 386.20 702.70 L 391.60 706.00 L 396.70 709.90 L 396.40 712.60 L 395.90 714.90 L 395.00 716.70 L 392.30 719.80 L 390.50 720.90 L 387.60 722.30 L 384.40 723.30 L 371.10 726.20 L 369.50 730.10 L 368.40 734.00 L 367.70 738.00 L 367.20 744.10 L 367.60 769.00 L 367.10 775.10 L 364.10 770.20 L 361.60 765.10 L 359.60 759.80 L 356.60 748.90 L 354.30 734.80 L 352.00 709.30 L 363.20 712.50 L 374.60 715.00 L 380.40 715.70 L 386.30 715.90 L 358.70 702.80 L 345.00 695.60 L 331.70 687.80 L 323.00 682.30 L 314.60 676.50 L 306.50 670.40 L 298.70 663.80 L 291.20 656.90 L 284.20 649.60 L 274.50 637.90 L 265.90 625.00 Z" fill="#d7c5c8" fill-rule="nonzero" node-id="114" stroke="none" target-height="190.09998" target-width="138.40002" target-x="258.3" target-y="585"/><path d="M 756.60 593.30 L 760.00 600.40 L 761.20 604.10 L 761.90 608.00 L 762.00 613.20 L 760.00 621.50 L 758.00 626.80 L 755.50 632.00 L 752.50 636.90 L 745.70 646.30 L 734.30 659.40 L 721.20 671.40 L 714.20 677.20 L 706.80 682.50 L 699.20 687.40 L 691.40 691.70 L 685.30 694.60 L 679.10 697.00 L 672.80 699.00 L 666.30 700.60 L 659.80 701.70 L 653.20 702.20 L 646.40 702.20 L 639.40 701.60 L 637.50 698.40 L 641.80 694.90 L 646.40 691.90 L 665.90 681.60 L 670.70 678.90 L 682.10 671.50 L 688.70 666.90 L 695.00 661.90 L 704.10 654.00 L 712.80 645.60 L 729.30 628.00 L 733.90 622.20 L 747.00 604.40 L 751.60 598.70 L 756.60 593.30 Z" fill="#d7c5c5" fill-rule="nonzero" node-id="116" stroke="none" target-height="108.900024" target-width="124.5" target-x="637.5" target-y="593.3"/><path d="M 481.20 640.20 L 496.40 642.30 L 511.50 643.80 L 519.20 644.00 L 526.80 643.80 L 530.20 646.10 L 523.90 647.70 L 517.60 648.70 L 513.40 649.10 L 509.10 649.10 L 504.80 648.50 L 492.00 646.50 L 489.00 645.60 L 484.40 643.30 L 481.20 640.20 Z" fill="#742616" fill-rule="nonzero" node-id="118" stroke="none" target-height="8.899963" target-width="49" target-x="481.2" target-y="640.2"/><path d="M 702.10 731.30 L 702.00 743.70 L 701.10 751.40 L 705.50 752.80 L 709.80 754.60 L 713.80 756.80 L 717.70 759.40 L 721.20 762.40 L 724.50 765.60 L 727.40 769.20 L 729.90 773.00 L 732.10 777.10 L 733.80 781.40 L 735.00 785.80 L 735.80 790.50 L 736.10 796.60 L 735.80 802.60 L 735.00 808.50 L 733.70 814.40 L 731.90 820.10 L 729.60 825.70 L 724.10 836.50 L 720.80 841.60 L 715.50 849.00 L 709.80 855.90 L 697.70 868.20 L 691.30 874.10 L 684.50 879.60 L 679.80 882.90 L 674.90 885.90 L 669.90 888.50 L 664.60 890.60 L 659.20 892.20 L 653.40 893.30 L 645.40 893.20 L 637.50 892.70 L 629.60 891.70 L 621.80 890.30 L 614.00 888.40 L 604.30 885.50 L 603.90 884.40 L 610.20 886.50 L 616.50 888.20 L 629.40 890.40 L 642.40 891.40 L 652.30 891.50 L 662.20 891.10 L 669.20 887.70 L 675.90 883.80 L 682.30 879.40 L 688.30 874.60 L 694.10 869.50 L 699.70 864.00 L 707.50 855.40 L 714.90 846.50 L 718.50 841.20 L 724.90 830.20 L 727.60 824.40 L 729.90 818.40 L 731.60 812.30 L 732.60 807.70 L 733.10 803.00 L 733.20 798.20 L 732.60 788.40 L 731.70 783.70 L 730.20 779.00 L 728.20 774.60 L 725.70 770.40 L 722.80 766.60 L 719.40 763.00 L 715.70 760.00 L 711.60 757.40 L 708.40 755.80 L 701.50 753.60 L 697.80 753.00 L 702.10 731.30 Z" fill="#762511" fill-rule="nonzero" node-id="120" stroke="none" target-height="162" target-width="132.19995" target-x="603.9" target-y="731.3"/><path d="M 292.00 787.40 L 292.70 780.10 L 295.00 773.20 L 297.30 768.90 L 300.00 764.90 L 303.30 761.30 L 307.10 758.10 L 311.10 755.40 L 315.40 753.30 L 322.40 751.20 L 329.70 750.70 L 338.30 753.70 L 332.80 762.40 L 323.90 764.50 L 319.60 766.20 L 315.60 768.40 L 313.20 770.20 L 311.10 772.30 L 309.20 774.80 L 307.90 777.80 L 307.20 780.90 L 307.00 784.00 L 307.20 787.10 L 308.50 793.30 L 311.70 802.30 L 315.30 809.90 L 319.30 817.30 L 323.70 824.40 L 328.50 831.30 L 338.90 844.50 L 350.50 856.70 L 359.10 864.80 L 362.00 866.70 L 365.10 868.30 L 368.30 869.50 L 371.70 870.30 L 375.10 870.60 L 378.50 870.40 L 381.80 869.60 L 385.10 868.30 L 391.40 864.50 L 403.30 855.70 L 420.50 841.70 L 407.70 831.80 L 403.80 828.10 L 399.10 822.70 L 397.20 819.60 L 420.50 832.50 L 431.60 836.70 L 443.10 839.70 L 451.90 841.30 L 460.80 842.50 L 478.60 843.90 L 512.10 844.40 L 523.30 844.30 L 545.60 842.80 L 556.60 841.40 L 567.60 839.40 L 578.50 836.80 L 599.50 829.20 L 610.10 825.80 L 607.00 829.90 L 603.50 833.50 L 595.50 839.70 L 587.00 845.20 L 597.20 852.00 L 607.70 858.30 L 615.00 862.10 L 622.40 865.60 L 629.90 868.60 L 634.80 870.00 L 639.80 870.90 L 643.20 871.10 L 649.90 870.50 L 653.10 869.60 L 656.20 868.40 L 659.20 866.80 L 666.60 861.80 L 673.60 856.40 L 680.20 850.60 L 686.50 844.30 L 692.30 837.60 L 697.70 830.50 L 702.60 823.20 L 707.00 815.40 L 715.70 807.50 L 718.90 805.40 L 721.20 804.40 L 723.70 803.70 L 726.60 803.50 L 725.20 810.10 L 723.30 816.50 L 720.90 822.80 L 718.10 828.80 L 714.90 834.70 L 711.30 840.30 L 703.00 850.90 L 692.30 862.00 L 685.70 868.00 L 676.30 875.20 L 671.40 878.40 L 666.20 881.10 L 660.80 883.30 L 655.10 885.00 L 643.40 885.40 L 631.60 884.60 L 620.10 882.20 L 614.50 880.50 L 609.10 878.30 L 603.90 875.70 L 598.90 872.70 L 594.20 869.20 L 582.90 859.20 L 577.90 856.00 L 575.20 855.10 L 571.30 855.00 L 560.00 857.10 L 550.90 858.30 L 541.70 859.00 L 528.00 859.60 L 486.50 859.80 L 465.30 858.20 L 436.10 854.60 L 431.70 854.90 L 428.50 856.30 L 423.50 859.60 L 404.20 874.00 L 399.20 877.20 L 394.00 880.10 L 388.40 882.40 L 383.80 883.70 L 379.10 884.50 L 374.30 884.80 L 360.00 884.90 L 348.40 876.40 L 342.20 871.50 L 336.40 866.10 L 325.50 854.50 L 320.50 848.20 L 313.40 838.60 L 306.90 828.60 L 303.20 822.30 L 299.70 815.70 L 296.80 808.90 L 294.40 801.90 L 293.20 797.20 L 292.40 792.30 L 292.00 787.40 Z" fill="#782812" fill-rule="nonzero" node-id="122" stroke="none" target-height="134.70001" target-width="434.59998" target-x="292" target-y="750.7"/><path d="M 309.20 774.80 L 311.10 772.30 L 313.20 770.20 L 315.60 768.40 L 319.60 766.20 L 323.90 764.50 L 332.80 762.40 L 340.10 765.90 L 327.80 767.20 L 328.20 773.00 L 329.10 778.50 L 330.50 784.00 L 332.30 789.30 L 336.80 799.60 L 340.70 807.20 L 353.20 829.40 L 357.40 836.10 L 370.70 855.60 L 376.30 856.50 L 377.50 847.30 L 378.20 838.10 L 378.40 828.90 L 378.30 819.60 L 383.20 816.50 L 385.90 815.20 L 388.60 814.30 L 392.40 813.90 L 401.60 815.50 L 408.70 817.50 L 429.50 824.50 L 436.50 826.50 L 423.30 826.20 L 410.10 826.60 L 397.20 819.60 L 399.10 822.70 L 403.80 828.10 L 407.70 831.80 L 420.50 841.70 L 397.50 860.20 L 391.40 864.50 L 385.10 868.30 L 381.80 869.60 L 378.50 870.40 L 375.10 870.60 L 371.70 870.30 L 368.30 869.50 L 365.10 868.30 L 362.00 866.70 L 359.10 864.80 L 356.60 862.50 L 344.60 850.70 L 338.90 844.50 L 328.50 831.30 L 323.70 824.40 L 319.30 817.30 L 315.30 809.90 L 311.70 802.30 L 308.50 793.30 L 307.70 790.20 L 307.00 784.00 L 307.20 780.90 L 307.90 777.80 L 309.20 774.80 Z" fill="#d7c4c4" fill-rule="nonzero" node-id="124" stroke="none" target-height="108.19995" target-width="129.5" target-x="307" target-y="762.4"/><path d="M 649.80 809.20 L 655.30 800.50 L 662.10 792.20 L 665.90 788.60 L 670.00 785.20 L 674.30 782.30 L 678.90 779.90 L 683.70 778.10 L 687.40 777.10 L 691.20 776.50 L 695.20 776.40 L 699.30 776.60 L 691.20 796.50 L 685.00 809.40 L 677.40 821.50 L 666.40 839.90 L 662.40 845.80 L 657.90 851.30 L 654.70 854.70 L 651.10 857.80 L 647.10 860.70 L 645.20 843.40 L 645.20 831.70 L 645.60 826.00 L 646.50 820.30 L 647.90 814.70 L 649.80 809.20 Z" fill="#fdfcfc" fill-rule="nonzero" node-id="126" stroke="none" target-height="84.29999" target-width="54.099976" target-x="645.2" target-y="776.4"/><path d="M 428.50 856.30 L 431.70 854.90 L 436.10 854.60 L 465.30 858.20 L 486.50 859.80 L 482.90 861.50 L 479.40 862.60 L 475.80 863.30 L 470.30 863.80 L 459.20 863.20 L 442.40 861.20 L 436.80 861.00 L 431.30 861.40 L 424.50 867.90 L 413.40 877.10 L 407.40 881.30 L 401.20 884.90 L 394.70 888.10 L 387.50 887.30 L 384.20 888.90 L 377.40 890.90 L 372.10 891.60 L 366.70 891.70 L 360.00 884.90 L 374.30 884.80 L 379.10 884.50 L 383.80 883.70 L 388.40 882.40 L 394.00 880.10 L 399.20 877.20 L 404.20 874.00 L 423.50 859.60 L 428.50 856.30 Z" fill="#d2a883" fill-rule="nonzero" node-id="128" stroke="none" target-height="37.100037" target-width="126.5" target-x="360" target-y="854.6"/><path d="M 486.50 859.80 L 528.00 859.60 L 541.70 859.00 L 550.90 858.30 L 560.00 857.10 L 571.30 855.00 L 575.20 855.10 L 577.90 856.00 L 580.50 857.40 L 589.80 865.20 L 584.30 864.90 L 593.90 874.80 L 603.90 884.40 L 600.80 883.80 L 598.10 882.80 L 595.50 881.50 L 591.90 879.00 L 581.90 870.00 L 578.40 867.30 L 574.60 865.10 L 545.70 867.70 L 516.70 869.20 L 457.60 866.80 L 428.10 865.00 L 431.30 861.40 L 436.80 861.00 L 442.40 861.20 L 459.20 863.20 L 470.30 863.80 L 475.80 863.30 L 479.40 862.60 L 482.90 861.50 L 486.50 859.80 Z" fill="#d1a67d" fill-rule="nonzero" node-id="130" stroke="none" target-height="29.400024" target-width="175.80002" target-x="428.1" target-y="855"/><path d="M 371.20 896.30 L 413.60 890.20 L 434.90 887.80 L 456.20 886.00 L 470.50 885.20 L 499.00 884.60 L 554.30 884.70 L 560.80 884.90 L 586.80 887.20 L 593.30 887.40 L 599.80 887.10 L 606.30 886.20 L 614.00 888.40 L 621.80 890.30 L 629.60 891.70 L 637.50 892.70 L 645.40 893.20 L 653.40 893.30 L 661.20 895.20 L 684.90 899.90 L 692.70 901.80 L 700.30 904.20 L 705.20 906.20 L 710.00 908.70 L 716.00 912.50 L 718.20 915.00 L 718.90 916.50 L 719.40 919.80 L 718.60 922.90 L 717.70 924.40 L 714.60 926.90 L 711.30 929.10 L 702.20 933.40 L 696.60 935.40 L 682.80 938.80 L 669.00 941.70 L 655.10 944.00 L 641.10 945.90 L 613.00 948.70 L 570.60 951.40 L 513.10 952.00 L 494.00 951.80 L 481.20 951.30 L 455.70 949.40 L 437.10 948.70 L 418.50 947.30 L 406.10 946.10 L 381.50 942.50 L 369.30 940.10 L 357.20 937.30 L 345.20 934.00 L 334.20 929.30 L 331.00 927.20 L 329.10 925.50 L 327.40 923.50 L 326.10 921.20 L 326.20 918.50 L 326.90 916.10 L 328.00 914.00 L 329.60 912.10 L 333.60 908.90 L 337.10 907.00 L 340.50 905.70 L 371.20 896.30 Z" fill="#c4a493" fill-rule="nonzero" node-id="132" stroke="none" target-height="67.400024" target-width="393.30002" target-x="326.1" target-y="884.6"/></svg>